<svg xmlns="http://www.w3.org/2000/svg" viewBox="0 0 1663 1920"><path fill="#204525" d="M0 0h1662.76v1920H0z"/><path d="M139.06 0L-.25-.43 0 80.5 139.06 0zM.25 1919.57h138.06l-.07-79.95 277.29-160.09 69.44 39.97 68.85-39.75v-80l69.28-40v-80l69.39-39.37-346.25-199.91.6 79.28 69.28 40-.05 79.92 138.53 80.69L.29 1840.41l-.04 79.16zm1662.13-1679.9l.13-239.24-415.3.05 138.75 79.9L692.82 480.5-.16 80.47l.49 159.15L554.75 560 .29 880.41l.14 79.34 68.67 39.78 346.28-199.92-.07-79.94 138.85-80.16 69.38 39.99 68.84-39.75.11-80.13 277.29-160.09 69.25 40.01 485.01-280.02 138.34 80.15zm.13 1679.9l.25-79.07-138.06 79.5 137.81-.43zm-138.66.79l-692.8-399.98 138.52-80.71v-80l138.56-80 .56-79.2-415.56 239.92 69.4 39.36v80l69.28 40-.05 79.92 138.28 79.84 69.32-39.99 208.06 120.12-.21 79.88 276.64.84zm138.58-960.74l.33-79.12-138.66 79.99-277.03-159.99.43 159.25 138.63 80.25-138.68 80.33.05 79.42 68.85 39.75 68.85-39.75.11-80.13 277.12-160z" fill="#252929"/><path d="M138.31-.43l69.1 40.68v80l70.15 40L277.5-.33l-139.19-.1zm.5 1920l137.82.43-138.07-79.5.25 79.07z" fill="#99a5aa"/><path d="M346.66-.43l-69.91.1.13 80.76 69.91-40.1-.13-40.76zm-.25 1880.93l-68.78 39.5 68.53-.43.25-39.07z" fill="#81a9bb"/><path d="M416.19 0l-70.03-.43.25 40.93L416.19 0zm-69.64 1919.52h138.28l-.24-39.19-68.9-39.83-68.91 39.83-.23 39.19zM416.19 0l68.78 39.5-.25-39.07L416.19 0z" fill="#bfd0d8"/><path d="M554.71-.2l-69.99-.23.25 39.93L415.44-.43l-.13 80.76 139.19 80.1.21-160.63zm-69.49 1919.77l68.53.43-68.78-39.5.25 39.07z" fill="#99a5aa"/><path d="M693.07-.43l-139.19.1.12 160.76 139.16-80.07L658.68 60 693.07-.43zm-.25 1840.93L554.75 1920l137.82-.43.25-79.07z" fill="#81a9bb"/><path d="M762.53-.25l-69.96-.18-34.83 60.68 104.61 60.18.18-120.68zM693.32 1920l68.34-.25.44-119.25-68.78 119.5z" fill="#eee"/><path d="M831.63-.43l-69.96.18.18 120.68 104.6-60.18L831.63-.43zm-69.1 1920.18l68.35.25-68.78-119.5.43 119.25z" fill="#99cadf"/><path d="M831 .33l277.51 160.17.46-160.7-69.99-.23.24 39.93L970.04-.49 831 .33zm.63 1919.24h138.06l-.18-79.32-68.6-39.82v80l-69.28-39.99v79.13zm207.84 0l68.54.43-68.79-39.5.25 39.07z" fill="#99a5aa"/><path d="M969.44 0l69.78 40.5.26-40.93-70.04.43zm69.78 1880.5l-68.78 39.5 68.54-.43.24-39.07z" fill="#c2d2d9"/><path d="M1247.32-.43l-139.19.1.13 160.76 139.19-80.1-.13-80.76zm-.25 1840.93l-138.06 79.5 137.81-.43.25-79.07z" fill="#81a9bb"/><path d="M138.56-.5L-.33 80.38 692.82 480.5l693.14-400.12L1247.07-.5l-.29 80.09L692.82 399.5 138.86 79.59l-.3-80.09z" fill="#6a7474"/><path d="M138.31-.43l-.18 80.68 69.96 40.18.19-80.68L138.31-.43zM415.69-.5L276.75 79.67l.38 80.83 138.94-80.17-.38-80.83z" fill="#6f8e9e"/><path d="M1108.99 159.88L831.57-.46 865.52 60l-34.64 20.01 34.67 19.83L761.61 280.1l139.22.37 208.16-120.59z" fill="#02bacb"/><path d="M415.69 79.5L345.91 120l69.78 40.5 69.78-40.5-69.78-40.5z" fill="#eee"/><path d="M692.91 79.51l-35.11 20.82 104.3 60.17 104.3-60.17-35.11-20.82-69.19 39.99-69.19-39.99z" fill="#2a59da"/><path d="M658.18 99.5l-104.36 60.75 139.25.18-34.89-60.93z" fill="#017d88"/><path d="M762.53 159.75L657.68 100l104.17 180.43.68-120.68z" fill="#dadada"/><path d="M866.52 100l-104.85 59.75.68 120.68L866.52 100z" fill="#81a9bb"/><path d="M346.41 119.5L276.63 160l70.03.43-.25-40.93z" fill="#017d88"/><path d="M346.16 119.57l-.18 80.68 69.96 40.18.18-80.68-69.96-40.18z" fill="#99a5aa"/><path d="M485.22 119.57l-69.96 40.18.18 80.68 69.96-40.18-.18-80.68z" fill="#81a9bb"/><path d="M484.97 119.5l-.43 80.25-69.1 40.68 138.91.06 69.62-40.74-139-80.25z" fill="#017d88"/><path d="M276.63 160l69.78 40.5.25-40.93-70.03.43zM554 159.57L623.03 200l-68.87 39.51-138.85.82 277.41 160.16 139.09-80.24-69.33-40.58-69.41-120.1H554z" fill="#02bacb"/><path d="M1524.04 159.52L1038.92 439.6l69.78 40.86 415.64-239.98 138.42 80.02.38-80.83-139.1-80.15zM-.2 240.46l.5 79.14L416.19 560 .3 800.4l-.5 79.14L553.75 560-.2 240.46zm1662.58 639.21l.38-79.17-138.66 79.99-277.17-160.01.47 79.14 276.89 159.89 138.09-79.84z" fill="#6a7474"/><path d="M1524.14 239.5L1315.85 360l208.29 120.5 139-80.17v-80.66l-139-80.17zM.25 320.43v79.14L68.78 360 .25 320.43z" fill="#eee"/><path d="M761.85 279.57l69.53 40.93 69.54-40.93H761.85z" fill="#017d88"/><path d="M69.75 359.84L-.49 399.88l.02 240.28 70.24-40.04-.02-240.28zM1662.3 639.8l.08-239.47-137.72 79.87-.08 239.47 137.72-79.87z" fill="#81a9bb"/><path d="M69.45 359.53l-.5 80.85 277.3 160.09 69.77-40.85L69.45 359.53zM1316.6 359.57l-208.57 120.27 138.61 80.41.05 160.08 277.41 160.16 139.04-80.16-.13-80.76-138.65-.04-207.58-119.78-.18-240.18zM.25 720.43L0 799.5 138.06 720l-137.81.43z" fill="#2a59da"/><path d="M1316.1 359.57l-.18 240.68 208.53 120.18.18-240.68-208.53-120.18z" fill="#99a5aa"/><path d="M970.04 399.51l-139.09 80.74 277.46 160.24 139.09-80.74-277.46-160.24z" fill="#eee"/><path d="M69.28 439.5l-.47 160.34-69.24 39.91.18 80.68 138.98.04 208.16-120.59L69.28 439.5zm1593.23 280.07l.25-79.07L1524.7 720l137.81-.43z" fill="#0e43d4"/><path d="M831.63 479.57L692.32 560l139.31 80.43V479.57z" fill="#eee"/><path d="M831.38 479.5l-.25 160.07-138.69-79.9-.08 240.53 138.93 80.29 69.86-40.37-.11-239.79 137.81 80-.06 79.92 70.15 40-.06-160.58-277.5-160.17z" fill="#99a5aa"/><path d="M1247.32 559.57l-139.25 80.18.19 160.68 139.24-80.18-.18-160.68z" fill="#81a9bb"/><path d="M900.19 599.84v240.32l70.23-40V639.83l-70.23-39.99z" fill="#7ca2b3"/><path d="M554.16 639.51l-138.85 80.82L831.32 960.5l277.53-160.14-69.76-40.84L831.42 879.5 554.6 719.64 624.03 680l-69.87-40.49z" fill="#eee"/><path d="M693.07 639.57l-69.97 40.18.18 80.68 69.97-40.18-.18-80.68z" fill="#6a7474"/><path d="M969.51 639.75v160.5l70.15-40v-80.5l-70.15-40zM623.78 679.57L553.75 720l70.03 40.43v-80.86z" fill="#6f8e9e"/><path d="M415.78 719.51l-.44 160.85 415.95 240.13.44-160.85-415.95-240.13z" fill="#99a5aa"/><path d="M693.07 719.57L623.03 760l70.04 40.43v-80.86z" fill="#430ed5"/><path d="M1247.32 719.57l-69.96 40.18.18 80.68 69.96-40.18-.18-80.68z" fill="#789cad"/><path d="M1177.79 759.5l-139 80.25 69.72 40.75 69.71-40.25-.43-80.75z" fill="#7699aa"/><path d="M415.53 799.53L68.95 999.62l69.78 40.85 277.29-160.09-.49-80.85z" fill="#6a7474"/><path d="M1247.45 799.67l-139.4 80.13.08 240.53 139.4-80.13-.08-240.53z" fill="#81a9bb"/><path d="M1039.47 839.57l-69.96 40.18.18 80.68 69.97-40.18-.19-80.68z" fill="#7699aa"/><path d="M1038.97 839.57v80.86l70.04-40.43-70.04-40.43z" fill="#7495a7"/><path d="M415.78 879.51l-69.81 40.74 138.91 80.24 69.81-40.74-138.91-80.24z" fill="#bfcad1"/><path d="M969.94 879.5l-138.99 80.25v160.5l70.14-40 .01-80 69.28-40-.44-80.75z" fill="#6f8e9e"/><path d="M1108.98 879.84l-70.19 39.91.18 79.82-69.28-40-.12 80.76 139.31 80 .1-240.49z" fill="#99a5aa"/><path d="M346.5 919.51l-69.81 40.74 138.91 80.24 69.81-40.74-138.91-80.24z" fill="#eee"/><path d="M1039.47 919.57L969.44 960l70.03 40.43v-80.86z" fill="#c1ccd2"/><path d="M-.25 959.57v160.86L139.06 1040-.25 959.57zm1662.76 160V960.43L1524.7 1040l137.81 79.57z" fill="#eee"/><path d="M277.38 959.57L138.06 1040l139.32 80.43V959.57z" fill="#592adc"/><path d="M276.88 959.57l-.19 160.68 139.25 80.18.18-160.68-139.24-80.18z" fill="#99a5aa"/><path d="M554.69 959.75l-70.19 40.09.04 160.41 70.19-40.08-.04-160.42z" fill="#7a9eb0"/><path d="M553.82 959.75v160.5l70.15-40v-80.5l-70.15-40z" fill="#6f8e9e"/><path d="M970.42 959.84l-70.24 40.04.01 240.28 70.24-40.04-.01-240.28z" fill="#81a9bb"/><path d="M1247.07 959.5l-.43 80.25-69.35 40.25 69.87 40.49 138.97-80.49-139.06-80.5z" fill="#6a7474"/><path d="M485.4 999.75l-70.18 40.09.04 160.41 70.18-40.08-.04-160.42z" fill="#81a9bb"/><path d="M623.28 999.57v80.86l70.04-40.43-70.04-40.43z" fill="#430ed5"/><path d="M138.56 1039.5L-.43 1119.75l-.04 160.41 70.18 40.09.04-160.09 69.25-39.91-.44-80.75z" fill="#81a9bb"/><path d="M138.76 1039.54l-.49 80.87 554.51 320.09 416.03-240.1-.48-80.87-415.47 239.97-554.1-319.96z" fill="#6a7474"/><path d="M692.91 1039.51l-69.81 40.74 138.9 80.24 69.81-40.74-138.9-80.24z" fill="#bfcad1"/><path d="M969.69 1039.57v160.86l139.32-80.43-139.32-80.43z" fill="#430ed5"/><path d="M1524.2 1039.5l-139 80.25 69.71 40.75 69.72-40.25-.43-80.75z" fill="#eee"/><path d="M1523.82 1039.67l-.1 240.17-68.37-40.09v-80l-70.15-40v160.5l139 80.25 138.99-80.25v-160.5l-139.37-80.08z" fill="#99a5aa"/><path d="M623.53 1079.5l-69.78 40.5 69.78 40.5 69.79-40.5-69.79-40.5z" fill="#eee"/><path d="M900.91 1079.57l-69.96 40.18.18 80.68 69.96-40.18-.18-80.68z" fill="#7698a9"/><path d="M1177.79 1079.5l-69.78 40.5 69.78 40.5 69.78-40.5-69.78-40.5z" fill="#eee"/><path d="M138.81 1119.57l-69.96 40.18.18 80.68 69.97-40.18-.19-80.68z" fill="#8399a3"/><path d="M138.31 1119.57v80.86l70.03-40.43-70.03-40.43z" fill="#c2c2c2"/><path d="M554.25 1119.5L415.19 1200l139.31.43-.25-80.93z" fill="#430ed5"/><path d="M553.82 1119.75v160.5l139 80.25.43-80.75-69.28-40v-80l-70.15-40z" fill="#99a5aa"/><path d="M693.07 1119.57l-69.97 40.18.18 80.68 69.97-40.18-.18-80.68z" fill="#6f8e9e"/><path d="M692.57 1119.57l-.19 80.68 69.97 40.18.18-80.68-69.96-40.18z" fill="#99a5aa"/><path d="M831.81 1119.75l-70.14 40-.01 80-69.28 40 .44 80.75 138.99-80.25v-160.5z" fill="#81a9bb"/><path d="M1108.07 1119.75l-.04 160.41 70.19 40.09.04-160.42-70.19-40.08z" fill="#99a5aa"/><path d="M1247.5 1119.75l-70.18 40.09.04 160.41 70.18-40.08-.04-160.42z" fill="#6f8e9e"/><path d="M1524.45 1119.57l-70.03 40.43 70.03 40.43v-80.86z" fill="#c7d1d6"/><path d="M207.84 1159.5l-138.99 80.25 69.71 40.75 69.29-40 69.28 40 69.71-40.75-139-80.25z" fill="#eee"/><path d="M900.91 1159.57l-69.96 40.18.18 80.68 69.96-40.18-.18-80.68z" fill="#7a9eb0"/><path d="M1454.66 1159.57l-.18 80.68 69.97 40.18.18-80.68-69.97-40.18z" fill="#8c9ea6"/><path d="M415.19 1200l139.06 80.5.25-80.93-139.31.43z" fill="#592adc"/><path d="M692.82 1199.5l-69.79 40.5 69.79 40.5 69.78-40.5-69.78-40.5z" fill="#eee"/><path d="M1246.82 1199.57v80.86l70.03-40.43-70.03-40.43z" fill="#c7d1d6"/><path d="M1385.88 1199.57l-70.03 40.43 70.03 40.43v-80.86z" fill="#6a7474"/><path d="M69.03 1239.57l-.18 80.68 69.96 40.18.19-80.68-69.97-40.18z" fill="#8399a3"/><path d="M208.09 1239.57l-69.96 40.18.18 80.68 69.97-40.18-.19-80.68z" fill="#81a9bb"/><path d="M207.59 1239.57l-.18 80.68 69.97 40.18.18-80.68-69.97-40.18z" fill="#8399a3"/><path d="M346.66 1239.57l-69.97 40.18.19 80.68 69.96-40.18-.18-80.68z" fill="#81a9bb"/><path d="M1316.41 1239.5l-139.09 80.66 208.26 120.34 139.09-80.66-208.26-120.34zM-.25 1279.57v160.86L139.06 1360-.25 1279.57zm1662.76 160v-159.14L1524.7 1360l137.81 79.57z" fill="#eee"/><path d="M1108.51 1279.5l-139 80.25 69.71 40.75 69.29-40 69.28 40 69.71-40.75-138.99-80.25z" fill="#4e75e0"/><path d="M207.84 1319.5l-69.78 40.5 69.78 40.5 69.79-40.5-69.79-40.5z" fill="#c7d1d6"/><path d="M346.31 1319.51l-138.9 80.24 69.81 40.74 138.9-80.24-69.81-40.74z" fill="#eee"/><path d="M139 1359.75L-.38 1439.67l.13 80.76 69.06-40.27v240l70.24-40.06-.05-320.35z" fill="#81a9bb"/><path d="M138.13 1359.75l-.04 160.41 70.19 40.09.04-160.42-70.19-40.08z" fill="#6f8e9e"/><path d="M415.94 1359.57l-139.25 80.18.19 160.68 139.24-80.18-.18-160.68z" fill="#81a9bb"/><path d="M969.51 1359.75v160.5l139 80.25.43-80.75-69.28-40v-80l-70.15-40z" fill="#2a59da"/><path d="M1108.51 1359.5l-69.79 40.5 69.79 40.5 69.78-40.5-69.78-40.5z" fill="#c7d1d6"/><path d="M1247.5 1359.75l-70.14 40-.01 80-69.28 40 .44 80.75 138.99-80.25v-160.5z" fill="#0e43d4"/><path d="M1246.82 1359.57l-.22 160.59 70 40.27v-80l69.29 40 .12-80.76-139.19-80.1z" fill="#99a5aa"/><path d="M1524.45 1359.57l-139.19 80.1.12 80.76 69.29-40v80l70-40.27-.22-160.59z" fill="#6f8e9e"/><path d="M1523.95 1359.57l-.23 160.59 70.01 40.27v-80l69.28 40 .13-80.76-139.19-80.1z" fill="#99a5aa"/><path d="M207.41 1399.75l-.04 160.41 70.19 40.09.04-160.42-70.19-40.08z" fill="#8399a3"/><path d="M1038.97 1399.57l-.18 80.68 69.97 40.18.18-80.68-69.97-40.18z" fill="#99a5aa"/><path d="M1178.04 1399.57l-69.97 40.18.19 80.68 69.96-40.18-.18-80.68z" fill="#6f8e9e"/><path d="M415.69 1439.5l-.31 80.1-415.69 240 .51 80.86 554.4-320.1-138.91-80.86zm1246.69 400.17l.38-79.17-138.73 79.97-554.38-320.06.29-79.91-138.23 79.12 692.67 399.91 138-79.86z" fill="#6a7474"/><path d="M692.82 1439.5l-69.79 40.5 69.79 40.5 69.78-40.5-69.78-40.5z" fill="#eee"/><path d="M69.75 1479.84l-70.24 40.04.02 240.28 70.24-40.04-.02-240.28z" fill="#6f8e9e"/><path d="M623.28 1479.57l-.18 80.68 69.97 40.18.18-80.68-69.97-40.18z" fill="#99a5aa"/><path d="M762.35 1479.57l-69.97 40.18.19 80.68 69.96-40.18-.18-80.68z" fill="#81a9bb"/><path d="M1316.1 1479.57v80.86l70.03-40.43-70.03-40.43z" fill="#6f8e9e"/><path d="M1455.16 1479.57l-70.03 40.43 70.03 40.43v-80.86zM1593.01 1479.84l-.02 240.28 70.24 40.04.01-240.28-70.23-40.04z" fill="#8399a3"/><path d="M138.56 1519.5l-.43 80.75 69.72 40.25 69.71-40.75-139-80.25z" fill="#284f23"/><path d="M1246.98 1519.51L1108.01 1600l138.97.49 69.28 40 138.91-.06.18-80.68-69.72-40.25-69.28 40-69.37-39.99z" fill="#204525"/><path d="M1524.2 1519.5l-69.78 40.5 69.78 40.5 69.78-40.5-69.78-40.5zM623.63 1559.51l-69.81 40.74 138.9 80.24 69.81-40.74-138.9-80.24z" fill="#eee"/><path d="M762.1 1559.5l-69.78 40.5 69.78 40.5 69.78-40.5-69.78-40.5z" fill="#c2d2d9"/><path d="M1454.66 1559.57l-.18 80.68 69.97 40.18.18-80.68-69.97-40.18z" fill="#99a5aa"/><path d="M1593.73 1559.57l-69.97 40.18.19 80.68 69.96-40.18-.18-80.68z" fill="#779bac"/><path d="M1108.16 1600.36l346.7 200.14.43-160.83-138.84-.16-69.29-40-139 .85z" fill="#284f23"/><path d="M138.31 1599.57v80.86l70.03-40.43-70.03-40.43z" fill="#204525"/><path d="M554 1599.57l-.18 160.68 139.25 80.18.18-160.68L554 1599.57z" fill="#99a5aa"/><path d="M831.81 1599.75l-70.18 40.09.04 160.41 70.18-40.08-.04-160.42z" fill="#81a9bb"/><path d="M762.35 1639.57l-69.97 40.18.19 80.68 69.96-40.18-.18-80.68z" fill="#6f8e9e"/><path d="M1454.66 1639.57l-.18 80.68 69.97 40.18.18-80.68-69.97-40.18z" fill="#8399a3"/><path d="M1593.73 1639.57l-69.97 40.18.19 80.68 69.96-40.18-.18-80.68z" fill="#6f8e9e"/><path d="M415.69 1679.5l-277.56 160.25 138.9 80.74 69.88-40.49-69.35-39.75 138.13-79.75 138.13 79.75-69.35 39.75 69.88 40.49 138.9-80.74-277.56-160.25z" fill="#eee"/><path d="M554.5 1679.57L484.47 1720l70.03 40.43v-80.86zM831.38 1679.5l-.43 80.75 69.71 40.25 69.72-40.75-139-80.25z" fill="#6a7474"/><path d="M762.35 1719.57l-69.97 40.18.19 80.68 69.96-40.18-.18-80.68z" fill="#7a9fb0"/><path d="M1039.28 1719.5l-139.05 80.25 69.71 40.75 69.29-40 68.78 39.5-69.29 40 69.88 40.49 138.94-80.65-208.26-120.34z" fill="#eee"/><path d="M1454.66 1719.57v80.86l70.04-40.43-70.04-40.43z" fill="#99a5aa"/><path d="M1593.73 1719.57l-69.97 40.18.19 80.68 69.96-40.18-.18-80.68z" fill="#779bac"/><path d="M1593.23 1719.57v80.86l70.03-40.43-70.03-40.43z" fill="#204525"/><path d="M415.69 1759.5l-139 80.25 69.72 40.75 69.71-40.25-.43-80.75z" fill="#81a9bb"/><path d="M415.69 1759.5l-.43 80.75 69.71 40.25 69.72-40.75-139-80.25z" fill="#99a5aa"/><path d="M831.38 1759.5l-69.75 40.34 35.11 60.66 104.39-60.34-69.75-40.66z" fill="#017d88"/><path d="M1524.45 1759.57l-70.03 40.43 70.03 40.43v-80.86z" fill="#93a5ad"/><path d="M762.53 1799.75l-70.09 39.92-.06 40.58 23.91.08 46.24-80.58z" fill="#017d88"/><path d="M900.91 1799.57L830.88 1840l70.03 40.43v-80.86z" fill="#eee"/><path d="M1039.47 1799.57l-69.96 40.18.18 80.68 69.97-40.18-.19-80.68z" fill="#81a9bb"/><path d="M1038.97 1799.57v80.86l70.04-40.43-70.04-40.43z" fill="#99a5aa"/><path d="M831.81 1839.75L796.24 1860l35.39 60.43.18-80.68zM692.82 1920.5l23.59-40.5-24.03-.25.44 40.75z" fill="#02bacb"/></svg>